<svg id="Group_1953" data-name="Group 1953" xmlns="http://www.w3.org/2000/svg" xmlns:xlink="http://www.w3.org/1999/xlink" width="71" height="37.613" viewBox="0 0 71 37.613">
  <defs>
    <clipPath id="clip-path">
      <rect id="Rectangle_412" data-name="Rectangle 412" width="71" height="37.613" fill="none"/>
    </clipPath>
  </defs>
  <g id="Group_1952" data-name="Group 1952" clip-path="url(#clip-path)">
    <path id="Path_174" data-name="Path 174" d="M8.941,170.009H7.3v-4.471a2.722,2.722,0,0,0-.79-2.031,2.8,2.8,0,0,0-2.045-.777,2.778,2.778,0,0,0-2.03.791,2.708,2.708,0,0,0-.8,2.017v4.471H0v-9.132H1.635V162.1A4.332,4.332,0,0,1,4.47,161.1a5.361,5.361,0,0,1,2.1.463,2.782,2.782,0,0,1,1.608,1.336,4.245,4.245,0,0,1,3.543-1.8,4.428,4.428,0,0,1,3.217,1.277,4.263,4.263,0,0,1,1.308,3.179v4.457H14.61v-4.471a2.721,2.721,0,0,0-.791-2.031,2.793,2.793,0,0,0-2.044-.777,2.78,2.78,0,0,0-2.031.791,2.708,2.708,0,0,0-.8,2.017Z" transform="translate(0 -144.068)" fill="#f38146"/>
    <path id="Path_175" data-name="Path 175" d="M400.081,168.2h-7.2a2.883,2.883,0,0,0,4.77,1.227l1.145,1.132a4.257,4.257,0,0,1-3.135,1.321,4.426,4.426,0,0,1-3.216-1.277,4.484,4.484,0,0,1,0-6.332,4.472,4.472,0,0,1,7.632,3.166Zm-1.772-1.636a2.836,2.836,0,0,0-5.4,0Z" transform="translate(-350.273 -145.938)" fill="#f38146"/>
    <path id="Path_176" data-name="Path 176" d="M489.51,170.009h-1.636v-4.471a2.722,2.722,0,0,0-.79-2.031,3.04,3.04,0,0,0-4.075.014,2.708,2.708,0,0,0-.8,2.017v4.471h-1.635v-9.132H482.2V162.1a4.486,4.486,0,0,1,6,.3,4.289,4.289,0,0,1,1.309,3.152Z" transform="translate(-430.358 -144.068)" fill="#f38146"/>
    <rect id="Rectangle_411" data-name="Rectangle 411" width="1.636" height="9.132" transform="translate(59.716 16.809)" fill="#f38146"/>
    <path id="Path_177" data-name="Path 177" d="M602.915,168.2h-7.2a2.883,2.883,0,0,0,4.77,1.227l1.145,1.132a4.256,4.256,0,0,1-3.135,1.321,4.426,4.426,0,0,1-3.216-1.277,4.484,4.484,0,0,1,0-6.332,4.472,4.472,0,0,1,7.632,3.166Zm-1.772-1.636a2.836,2.836,0,0,0-5.4,0Z" transform="translate(-531.915 -145.938)" fill="#f38146"/>
    <path id="Path_178" data-name="Path 178" d="M552.466,100.556l.611,2.445,2.514-.174-2.136,1.337.943,2.337-1.932-1.619-1.932,1.619.943-2.337-2.136-1.337,2.514.174Z" transform="translate(-491.944 -90.049)" fill="#f1bc47"/>
    <path id="Path_179" data-name="Path 179" d="M14.507.167h0v0Z" transform="translate(-12.991 0.001)" fill="#f38146"/>
    <path id="Path_180" data-name="Path 180" d="M184.823,170.8v-8.613h1.635v4.552a2.72,2.72,0,0,0,.791,2.03,3.04,3.04,0,0,0,4.075-.014,2.705,2.705,0,0,0,.8-2.017q0-.763.027-2.276t.027-2.276h1.636q0,.761-.027,2.269t-.027,2.269a4.452,4.452,0,0,1-4.454,4.457,4.639,4.639,0,0,1-2.851-1.063c.018,1.21-1.635,2.3-1.635.682" transform="translate(-165.512 -145.24)" fill="#f38146"/>
    <path id="Path_181" data-name="Path 181" d="M282.129,170.8v-.6a4.409,4.409,0,0,1-2.835.981,4.457,4.457,0,1,1,2.835-7.9v-1.09h1.635V170.8c0,1.617-1.635,1.145-1.635,0m0-4.075a2.74,2.74,0,0,0-.791-2.041,3.029,3.029,0,0,0-4.075.013,2.957,2.957,0,0,0,0,4.054,3.03,3.03,0,0,0,4.075.014,2.741,2.741,0,0,0,.791-2.041" transform="translate(-246.11 -145.24)" fill="#f38146"/>
    <path id="Path_182" data-name="Path 182" d="M260.48,315.373s-.838,1.5.159,2.346c1.115.949-.439,2.317-.439,2.317s3.582-.641,2.362-4.569Z" transform="translate(-232.969 -282.422)" fill="#18a64a"/>
    <path id="Path_183" data-name="Path 183" d="M238.811,268.563a4.164,4.164,0,0,0,3.522,1.03,9.544,9.544,0,0,0,4.012-1.6s-1.543,2.407-3.828,2.668-3.705-2.1-3.705-2.1" transform="translate(-213.86 -239.994)" fill="#18a64a"/>
    <path id="Path_184" data-name="Path 184" d="M196.5,58.849c.591-7.522-4.577-11.339-10.073-11.339s-10.405,3.857-9.83,11.339" transform="translate(-158.105 -42.546)" fill="#18a64a"/>
    <path id="Path_185" data-name="Path 185" d="M367.217,148.919h0a2.051,2.051,0,0,1,2.045,2.045v3.553a2.051,2.051,0,0,1-2.045,2.045" transform="translate(-328.85 -133.36)" fill="#18a64a"/>
    <path id="Path_186" data-name="Path 186" d="M161.045,156.562h0A2.052,2.052,0,0,1,159,154.517v-3.553a2.051,2.051,0,0,1,2.045-2.045" transform="translate(-142.387 -133.36)" fill="#18a64a"/>
    <path id="Path_187" data-name="Path 187" d="M258.036,28.575a4.853,4.853,0,0,1,1.977-3.118,2.9,2.9,0,0,1,2.6-.345,2.927,2.927,0,0,0-1.76,2.993l-.095,2.412H259.5Z" transform="translate(-231.076 -22.345)" fill="#18a64a"/>
    <path id="Path_188" data-name="Path 188" d="M299.157,239.065l-.257-1.694c2.343-.356,3.856-1.884,4.5-4.543a13.327,13.327,0,0,0,.258-4.218l1.7-.217a14.876,14.876,0,0,1-.281,4.789c-.8,3.383-2.846,5.417-5.917,5.884" transform="translate(-267.67 -204.53)" fill="#f38146"/>
    <path id="Path_189" data-name="Path 189" d="M191.116,239.065c-3.071-.466-5.117-2.5-5.917-5.884a14.877,14.877,0,0,1-.281-4.789l1.7.218-.85-.109.85.108a13.328,13.328,0,0,0,.258,4.218c.64,2.659,2.153,4.188,4.5,4.543Z" transform="translate(-165.527 -204.53)" fill="#f38146"/>
  </g>
</svg>
