<svg xmlns="http://www.w3.org/2000/svg" width="40" height="40" viewBox="0 0 40 40">
  <g id="Group_1470" data-name="Group 1470" transform="translate(-187 -376)">
    <circle id="Ellipse_42" data-name="Ellipse 42" cx="20" cy="20" r="20" transform="translate(187 376)" fill="#329937"/>
    <path id="Path_90" data-name="Path 90" d="M48.964-911.273a3.006,3.006,0,0,0-1.536-1.136,6.2,6.2,0,0,0-1.973-.318,6.2,6.2,0,0,0-1.973.318,3.006,3.006,0,0,0-1.536,1.136ZM40-909.818a3.722,3.722,0,0,1,1.655-3.173,6.338,6.338,0,0,1,3.8-1.191,6.338,6.338,0,0,1,3.8,1.191,3.722,3.722,0,0,1,1.655,3.173Zm0,2.909v-1.455H50.909v1.455ZM52.364-904v-1.455h1.018L54.4-915.636H47.455l-.182-1.454h3.636V-920h1.455v2.909H56l-1.2,12.036a1.148,1.148,0,0,1-.4.755,1.183,1.183,0,0,1-.8.3Zm0-1.455h0ZM40.727-904a.7.7,0,0,1-.518-.209.7.7,0,0,1-.209-.518v-.727H50.909v.727a.7.7,0,0,1-.209.518.7.7,0,0,1-.518.209ZM45.455-911.273Z" transform="translate(159 1307)" fill="#fff"/>
  </g>
</svg>
